<?xml version="1.0" encoding="UTF-8"?>
<svg xmlns="http://www.w3.org/2000/svg" xmlns:xlink="http://www.w3.org/1999/xlink" width="447px" height="447px" viewBox="0 0 447 447" version="1.1">
<defs>
<clipPath id="clip1">
  <path d="M 227.585938 198.53125 L 410.941406 198.53125 L 410.941406 220.179688 L 227.585938 220.179688 Z M 227.585938 198.53125 "/>
</clipPath>
</defs>
<g id="surface1">
<path style=" stroke:none;fill-rule:evenodd;fill:rgb(7.843137%,34.901961%,61.960784%);fill-opacity:1;" d="M 458.785156 30.398438 L 458.785156 61.648438 L 521.996094 61.648438 L 521.996094 -0.851562 L 458.785156 -0.851562 L 458.785156 30.398438 M 208.226562 0.441406 C 187.386719 2.242188 172.386719 5.128906 154.933594 10.699219 C 120.914062 21.5625 88.984375 41.292969 63.882812 66.964844 C 52.78125 78.320312 45.902344 86.652344 38.117188 98.164062 C 16.550781 130.070312 4.175781 165.078125 0.441406 204.730469 C 0.144531 207.921875 -0.0117188 214.699219 0 224.042969 C 0.0195312 236.394531 0.132812 239.453125 0.796875 245.601562 C 4.457031 279.441406 14.507812 309.847656 31.332031 337.980469 C 51.152344 371.125 79.253906 398.675781 112.707031 417.757812 C 157.328125 443.21875 209.71875 452.511719 260.535156 443.972656 C 289.457031 439.117188 316.480469 428.941406 341.144531 413.625 C 383.425781 387.375 415.5625 348.25 433 301.816406 C 447.53125 263.109375 450.984375 220.894531 442.953125 179.976562 C 438.039062 154.921875 428.703125 130.636719 415.476562 108.523438 C 399.796875 82.296875 377.453125 58.464844 351.390625 40.152344 C 319.046875 17.429688 279.039062 3.253906 239.65625 0.558594 C 235.011719 0.238281 211.5625 0.152344 208.226562 0.441406 M 205.675781 6.726562 C 180.445312 8.929688 157.84375 14.671875 135.355469 24.589844 C 116.015625 33.121094 98.550781 44.207031 80.925781 59.125 C 74.839844 64.28125 61.695312 77.570312 56.207031 84.121094 C 35.898438 108.359375 20.683594 137.917969 12.828125 168.390625 C 9.757812 180.308594 7.929688 190.816406 6.601562 204.203125 C 5.730469 212.96875 5.726562 233.871094 6.59375 242.652344 C 7.902344 255.882812 9.5 265.230469 12.480469 277.0625 C 24.546875 324.984375 53.25 367.878906 93.214844 397.71875 C 112.753906 412.308594 132.605469 422.644531 155.722656 430.261719 C 170.964844 435.285156 185.65625 438.335938 203.484375 440.183594 C 209.378906 440.789062 231.519531 441.011719 238.398438 440.527344 C 265.925781 438.589844 291.046875 432.070312 316.25 420.316406 C 340.402344 409.050781 364.3125 391.632812 382.09375 372.351562 C 392.289062 361.296875 397.570312 354.660156 404.550781 344.125 C 425.421875 312.636719 436.917969 279.753906 440.386719 241.597656 C 441.214844 232.539062 441.214844 214.320312 440.386719 205.085938 C 438.230469 180.910156 433.101562 160.230469 423.753906 138.015625 C 416.3125 120.34375 404.894531 101.378906 392.699219 86.449219 C 385.949219 78.183594 374.550781 66.539062 366.003906 59.179688 C 336.808594 34.039062 302.957031 17.535156 264.855469 9.863281 C 259.664062 8.820312 246.238281 7.089844 239.109375 6.546875 C 232.449219 6.039062 212.296875 6.148438 205.675781 6.726562 M 212.4375 20.910156 C 195.585938 21.832031 177.882812 25.210938 160.78125 30.773438 C 134.546875 39.300781 107.550781 54.625 88.476562 71.804688 C 86.738281 73.371094 83.617188 76.164062 81.542969 78.011719 C 74 84.722656 64.785156 95.359375 57.691406 105.539062 C 40.242188 130.570312 29.734375 154.515625 23.707031 182.976562 C 16.585938 216.589844 18.769531 253.949219 29.808594 287.246094 C 35.0625 303.097656 42.429688 318.738281 50.3125 330.769531 C 73.277344 365.820312 94.085938 382.671875 120.960938 387.988281 C 128.46875 389.472656 132.121094 389.773438 142.378906 389.753906 C 152.820312 389.734375 155.4375 389.5 170.121094 387.300781 C 189.964844 384.328125 197.964844 383.648438 205.367188 384.316406 C 209.980469 384.730469 214.601562 385.65625 214.140625 386.074219 C 213.441406 386.710938 201.328125 389.679688 190.492188 391.878906 C 173.628906 395.292969 164.820312 396.441406 152.5625 396.8125 C 134.191406 397.371094 119.003906 394.570312 106.472656 388.316406 C 104.785156 387.472656 103.402344 386.859375 103.402344 386.953125 C 103.402344 387.046875 105.058594 388.234375 107.082031 389.59375 C 121.65625 399.367188 133.625 404.378906 148.941406 407.121094 C 161.382812 409.347656 179.835938 408.957031 197.445312 406.09375 C 212.859375 403.589844 225.769531 400.394531 255.535156 391.730469 C 261.652344 389.953125 273.878906 387.296875 280.035156 386.410156 C 286.378906 385.5 298.007812 385.167969 304.972656 385.703125 C 316.457031 386.582031 325.265625 388.421875 333.160156 391.59375 L 336.242188 392.832031 L 342.371094 388.234375 C 351.304688 381.527344 357.5 376.101562 366.640625 366.976562 C 375.46875 358.160156 381.472656 351.335938 387.792969 342.929688 C 391.472656 338.03125 396.449219 330.3125 396.132812 329.996094 C 396.0625 329.921875 374.851562 329.878906 348.996094 329.890625 L 301.988281 329.917969 L 290.75 341.148438 L 279.507812 352.375 L 206.644531 352.375 L 206.644531 315.296875 L 204.332031 313.054688 L 108.238281 312.875 L 112.035156 307.960938 L 125.976562 307.867188 L 139.921875 307.777344 L 139.921875 276.621094 L 138.824219 276.402344 C 138.21875 276.28125 134.308594 276.179688 130.132812 276.179688 C 116.148438 276.171875 74.238281 273.851562 73.75 273.058594 C 73.675781 272.941406 89.839844 272.847656 109.667969 272.847656 C 140.261719 272.847656 147.230469 272.753906 155.722656 272.222656 C 168.226562 271.441406 171.894531 271.101562 179.605469 270.007812 C 193.535156 268.035156 200.292969 265.945312 202.953125 262.785156 C 207.636719 257.214844 194.617188 251.859375 168.542969 248.636719 C 157.710938 247.296875 139.128906 245.808594 138.429688 246.222656 C 137.917969 246.527344 138.175781 247.390625 138.78125 247.394531 C 140.640625 247.402344 152.785156 248.933594 158.203125 249.84375 C 172.921875 252.308594 181.816406 254.910156 185.136719 257.722656 C 186.761719 259.101562 186.660156 260.132812 184.785156 261.214844 C 177.898438 265.179688 146.941406 266.722656 88.652344 266 C 58.277344 265.625 54.585938 265.488281 54.585938 264.757812 C 54.585938 263.75 56.308594 259.609375 57.695312 257.273438 C 59.816406 253.699219 64.101562 249.84375 68.109375 247.902344 C 73.457031 245.308594 75.949219 244.773438 82.679688 244.765625 C 88.875 244.757812 90.496094 245.035156 95.261719 246.90625 C 98.527344 248.191406 104.007812 251.894531 106.214844 254.3125 C 107.234375 255.425781 108.925781 257.5625 109.976562 259.0625 C 111.027344 260.5625 112.023438 261.789062 112.191406 261.789062 C 112.660156 261.789062 111.535156 258.375 110.167969 255.644531 C 108.625 252.566406 106.402344 249.4375 104.3125 247.40625 L 102.699219 245.839844 L 102.699219 158.222656 L 103.488281 157.722656 C 104.125 157.316406 106.574219 157.199219 116.042969 157.121094 C 122.511719 157.066406 130.894531 157.050781 134.671875 157.089844 L 141.535156 157.152344 L 141.972656 178.835938 C 142.210938 190.761719 142.507812 202.71875 142.628906 205.40625 C 142.839844 210.125 142.824219 210.28125 142.171875 210.007812 C 138.507812 208.449219 136.789062 208.5 134.824219 210.226562 C 131.492188 213.152344 133.617188 218.25 138.171875 218.25 C 139.609375 218.25 140.984375 217.5 142.292969 216.011719 C 143.25 214.925781 143.390625 214.46875 143.582031 211.867188 C 144.457031 200.132812 145.164062 110.804688 144.566406 87.808594 C 144.378906 80.660156 144.265625 74.769531 144.308594 74.714844 C 144.355469 74.660156 145.246094 75.300781 146.285156 76.140625 C 147.324219 76.976562 149.179688 78.359375 150.410156 79.214844 L 152.640625 80.765625 L 152.40625 85.691406 C 151.660156 101.441406 151.59375 191.761719 152.328125 192.5 C 152.457031 192.628906 152.652344 192.644531 152.761719 192.539062 C 152.867188 192.429688 153.203125 185.964844 153.507812 178.171875 C 154.140625 161.933594 154.332031 113.546875 153.839844 93.824219 L 153.535156 81.582031 L 157.089844 84.34375 L 160.648438 87.105469 L 160.378906 97.289062 C 160.042969 110.21875 160.070312 179.363281 160.414062 181.117188 C 160.558594 181.84375 160.800781 182.433594 160.953125 182.433594 C 161.816406 182.433594 162.589844 133.054688 162.125 107.820312 C 161.925781 97.199219 161.816406 88.457031 161.878906 88.390625 C 161.9375 88.328125 163.441406 89.433594 165.214844 90.847656 L 168.4375 93.425781 L 168.230469 96.761719 C 167.496094 108.523438 167.234375 124.320312 167.457031 143.636719 C 167.765625 170.167969 168.023438 175.875 168.875 175.019531 C 169.332031 174.5625 169.84375 137.28125 169.671875 117.039062 C 169.492188 95.871094 169.515625 94.332031 170.0625 94.65625 C 170.386719 94.84375 171.914062 96 173.460938 97.21875 C 176.144531 99.339844 176.265625 99.5 176.238281 100.820312 C 176.21875 101.582031 176.007812 108.601562 175.765625 116.421875 C 175.347656 130.074219 175.589844 155.417969 176.328125 174.804688 L 176.550781 180.691406 L 175.53125 180.160156 C 174.972656 179.867188 173.667969 179.628906 172.632812 179.628906 C 170.964844 179.625 170.621094 179.757812 169.5625 180.820312 C 168.207031 182.175781 167.976562 183.824219 168.898438 185.605469 C 170.457031 188.617188 175.320312 188.234375 176.675781 184.992188 C 177.703125 182.53125 178.097656 151.199219 177.613281 110.664062 L 177.382812 91.097656 L 170.152344 85.402344 C 166.175781 82.269531 162.132812 79.164062 161.167969 78.503906 C 160.203125 77.84375 156.410156 74.941406 152.738281 72.054688 C 149.070312 69.167969 145.484375 66.351562 144.769531 65.792969 L 143.472656 64.78125 L 128.859375 70.628906 C 120.828125 73.84375 114.167969 76.394531 114.070312 76.296875 C 113.859375 76.085938 119.003906 72.21875 123.59375 69.140625 C 146.210938 53.96875 171.429688 43.945312 198.917969 39.203125 C 235.195312 32.945312 272.753906 36.488281 306.726562 49.375 C 330.949219 58.5625 355.046875 74.015625 372.359375 91.46875 C 386.351562 105.574219 398.410156 122.777344 407.054688 140.984375 C 408.285156 143.585938 409.371094 145.785156 409.464844 145.878906 C 409.5625 145.972656 409.902344 145.789062 410.222656 145.464844 C 410.769531 144.917969 410.707031 144.652344 409.277344 141.449219 C 400.515625 121.808594 388.207031 102.933594 373.691406 86.867188 C 369.992188 82.777344 361.113281 74.324219 355.015625 69.089844 C 347.519531 62.65625 335.953125 54.390625 326.921875 49.011719 C 320.828125 45.378906 305.710938 37.929688 299.179688 35.335938 C 292.804688 32.804688 280.699219 28.757812 274.949219 27.234375 C 270.257812 25.992188 258.703125 23.664062 252.472656 22.707031 C 241.726562 21.054688 224.175781 20.269531 212.4375 20.910156 M 310.746094 105.820312 C 310.898438 106.308594 310.613281 106.601562 309.511719 107.089844 C 307.566406 107.945312 306.730469 109.40625 306.730469 111.945312 C 306.726562 114.472656 307.355469 114.617188 307.5 112.125 C 307.582031 110.703125 307.746094 110.257812 308.222656 110.167969 C 308.742188 110.070312 308.835938 110.328125 308.835938 111.832031 C 308.835938 112.8125 308.992188 113.613281 309.1875 113.613281 C 309.378906 113.613281 309.539062 112.761719 309.539062 111.722656 C 309.539062 109.890625 309.570312 109.828125 310.585938 109.679688 C 311.53125 109.539062 311.65625 109.632812 311.84375 110.632812 C 311.957031 111.246094 312 112.03125 311.9375 112.378906 C 311.871094 112.730469 312.019531 113.085938 312.257812 113.167969 C 312.574219 113.277344 312.699219 112.8125 312.699219 111.535156 C 312.699219 110.023438 312.800781 109.753906 313.359375 109.753906 C 314.320312 109.753906 314.742188 110.441406 314.867188 112.214844 C 314.953125 113.375 315.140625 113.8125 315.59375 113.902344 C 316.128906 114 316.210938 113.71875 316.210938 111.734375 C 316.210938 109.808594 316.070312 109.292969 315.320312 108.398438 C 314.832031 107.816406 313.875 107.160156 313.199219 106.933594 C 312.21875 106.613281 312.011719 106.390625 312.179688 105.859375 C 312.355469 105.3125 312.21875 105.1875 311.46875 105.1875 C 310.738281 105.1875 310.585938 105.320312 310.746094 105.820312 M 307.664062 115.5 C 306.730469 115.761719 305.71875 116.230469 305.410156 116.539062 C 304.894531 117.054688 304.898438 117.117188 305.4375 117.324219 C 305.828125 117.476562 306.027344 117.953125 306.027344 118.742188 C 306.027344 119.808594 305.863281 120.007812 304.421875 120.683594 C 303.539062 121.101562 302.578125 121.800781 302.289062 122.242188 C 301.824219 122.953125 301.828125 123.15625 302.316406 124.109375 C 302.832031 125.101562 305.855469 127.246094 306.222656 126.878906 C 306.3125 126.789062 306.089844 126.332031 305.726562 125.871094 C 304.632812 124.464844 304.503906 123.566406 305.285156 122.78125 C 306.929688 121.136719 313.753906 120.582031 316.359375 121.878906 C 318.398438 122.894531 318.65625 123.53125 317.703125 125.191406 C 317.164062 126.132812 316.910156 127.144531 316.910156 128.382812 C 316.910156 130.101562 316.867188 130.1875 316.121094 129.96875 C 314.4375 129.480469 310.316406 129.355469 308.308594 129.730469 C 303.875 130.558594 300.566406 133.035156 301.414062 134.894531 C 301.65625 135.425781 302.207031 135.832031 302.863281 135.960938 C 303.738281 136.136719 303.917969 136.34375 303.917969 137.164062 L 303.917969 138.152344 L 305.585938 137.386719 C 306.992188 136.742188 307.886719 136.625 311.292969 136.625 C 313.667969 136.628906 315.730469 136.800781 316.296875 137.050781 L 317.261719 137.472656 L 317.261719 141.207031 C 317.261719 144.390625 317.1875 144.910156 316.734375 144.734375 C 313.648438 143.550781 308.207031 143.804688 305.191406 145.269531 C 303.785156 145.953125 303.628906 146.15625 303.433594 147.597656 C 303.3125 148.464844 303.214844 150.378906 303.210938 151.847656 L 303.207031 154.519531 L 301.894531 155.363281 C 297.738281 158.039062 260.429688 184.699219 260.558594 184.902344 C 260.640625 185.039062 262.6875 186.460938 265.109375 188.0625 C 267.527344 189.660156 269.503906 191.09375 269.503906 191.246094 C 269.503906 191.398438 267.332031 190.492188 264.675781 189.230469 C 259.210938 186.636719 241.890625 178.734375 238.53125 177.304688 C 237.023438 176.660156 235.46875 176.308594 233.660156 176.195312 C 229.761719 175.953125 228.675781 176.605469 218.191406 185.492188 C 213.289062 189.648438 208.804688 193.421875 208.226562 193.882812 L 207.171875 194.714844 L 237.019531 194.71875 C 253.4375 194.722656 302.191406 194.824219 345.359375 194.941406 C 414.914062 195.136719 423.785156 195.101562 423.316406 194.636719 C 422.785156 194.105469 391.722656 169.160156 386.140625 164.78125 C 384.472656 163.472656 381.929688 161.8125 380.492188 161.09375 C 378.082031 159.890625 377.632812 159.789062 374.875 159.789062 C 370.324219 159.789062 368.089844 160.96875 357.042969 169.222656 C 353.910156 171.566406 351.339844 173.570312 351.335938 173.679688 C 351.332031 173.789062 353.839844 176.871094 356.90625 180.527344 C 359.976562 184.183594 362.433594 187.234375 362.367188 187.304688 C 362.300781 187.375 360.777344 186.257812 358.984375 184.820312 C 350.15625 177.757812 323.265625 156.941406 321.324219 155.664062 C 319.902344 154.734375 319.917969 154.824219 319.371094 145.214844 C 319.167969 141.644531 318.921875 138.128906 318.832031 137.402344 C 318.6875 136.289062 318.761719 136.085938 319.320312 136.085938 C 320.285156 136.085938 321.828125 134.746094 321.828125 133.90625 C 321.828125 133.121094 319.609375 130.820312 318.851562 130.820312 C 318.53125 130.820312 318.332031 130.175781 318.234375 128.800781 C 318.085938 126.847656 318.125 126.742188 319.386719 125.554688 C 320.105469 124.875 320.792969 124.023438 320.917969 123.660156 C 321.257812 122.660156 320.222656 121.378906 318.46875 120.628906 C 317.109375 120.046875 316.910156 119.824219 316.910156 118.882812 C 316.910156 118.25 317.128906 117.722656 317.4375 117.605469 C 318.34375 117.257812 318.019531 116.527344 316.671875 115.890625 C 314.953125 115.074219 309.941406 114.859375 307.664062 115.5 M 114.988281 164.703125 L 114.988281 167.335938 L 120.257812 167.335938 L 120.257812 162.070312 L 114.988281 162.070312 L 114.988281 164.703125 M 123.101562 164.703125 L 123.039062 167.335938 L 128.683594 167.335938 L 128.683594 162.070312 L 123.160156 162.070312 L 123.101562 164.703125 M 131.492188 164.703125 L 131.492188 167.335938 L 136.761719 167.335938 L 136.761719 162.070312 L 131.492188 162.070312 L 131.492188 164.703125 M 123.386719 169.882812 C 123.371094 169.929688 123.277344 171.113281 123.179688 172.515625 L 123.003906 175.0625 L 128.683594 175.0625 L 128.683594 169.792969 L 126.050781 169.792969 C 124.601562 169.792969 123.402344 169.832031 123.386719 169.882812 M 131.492188 172.425781 L 131.492188 175.0625 L 136.761719 175.0625 L 136.761719 169.792969 L 131.492188 169.792969 L 131.492188 172.425781 M 131.492188 180.855469 L 131.492188 183.488281 L 136.761719 183.488281 L 136.761719 178.222656 L 131.492188 178.222656 L 131.492188 180.855469 M 131.492188 189.105469 L 131.492188 191.914062 L 136.761719 191.914062 L 136.761719 186.296875 L 131.492188 186.296875 L 131.492188 189.105469 M 130.535156 241.9375 C 128.984375 242.617188 127.898438 244.421875 128.125 245.9375 C 128.660156 249.507812 132.242188 250.890625 134.984375 248.585938 C 138.421875 245.691406 134.691406 240.117188 130.535156 241.9375 M 387.847656 244.886719 C 387.847656 246.890625 387.871094 246.9375 388.726562 246.777344 C 389.222656 246.679688 389.605469 246.773438 389.605469 246.984375 C 389.605469 247.566406 388.804688 249.179688 388.578125 249.050781 C 384.550781 246.792969 381.332031 246.058594 378.09375 246.65625 C 370.382812 248.074219 366.410156 253.808594 366.882812 262.839844 C 367.226562 269.507812 369.410156 273.507812 373.960938 275.832031 C 376.261719 277.007812 376.527344 277.0625 380.089844 277.0625 C 383.375 277.0625 384.042969 276.953125 385.785156 276.136719 C 390.796875 273.785156 393.453125 268.929688 393.464844 262.097656 C 393.46875 258.152344 393 255.746094 391.75 253.292969 L 390.730469 251.296875 L 391.445312 250.660156 C 392.585938 249.644531 393.117188 247.945312 393.117188 245.296875 L 393.117188 242.828125 L 387.847656 242.828125 L 387.847656 244.886719 M 116.921875 245.988281 C 116.46875 246.179688 117.613281 246.296875 120.125 246.3125 C 122.273438 246.328125 124.527344 246.4375 125.128906 246.558594 C 125.996094 246.730469 126.226562 246.660156 126.226562 246.207031 C 126.226562 245.710938 125.671875 245.640625 121.925781 245.660156 C 119.558594 245.675781 117.308594 245.820312 116.921875 245.988281 M 229.472656 246.800781 C 222.238281 248.449219 218.417969 254.523438 219.042969 263.382812 C 219.664062 272.191406 224.480469 277.222656 232.28125 277.21875 C 234.601562 277.214844 235.695312 277.035156 237.195312 276.40625 L 239.128906 275.597656 L 240.824219 277.207031 L 242.523438 278.816406 L 245.953125 274.957031 L 244.53125 273.507812 L 243.109375 272.0625 L 243.984375 270.335938 C 244.464844 269.386719 245.050781 267.628906 245.289062 266.425781 C 245.824219 263.703125 245.550781 257.714844 244.78125 255.25 C 244.167969 253.292969 242.273438 250.519531 240.625 249.179688 C 238.007812 247.050781 233.035156 245.992188 229.472656 246.800781 M 296.367188 247.316406 L 292.859375 247.417969 L 290.574219 252.867188 C 289.320312 255.863281 288.152344 258.347656 287.984375 258.382812 C 287.8125 258.421875 286.550781 255.964844 285.179688 252.921875 L 282.6875 247.390625 L 275.09375 247.390625 L 277.625 252.21875 C 279.023438 254.875 281.117188 258.785156 282.285156 260.910156 L 284.410156 264.773438 L 284.53125 270.652344 L 284.652344 276.535156 L 290.925781 276.535156 L 290.925781 265.949219 L 295.511719 256.820312 C 298.03125 251.796875 300.046875 247.582031 299.988281 247.453125 C 299.929688 247.320312 298.300781 247.261719 296.367188 247.316406 M 399.347656 247.316406 L 396.277344 247.417969 L 396.277344 276.535156 L 402.246094 276.535156 L 402.246094 267.40625 C 402.246094 262.382812 402.367188 258.277344 402.511719 258.28125 C 402.652344 258.285156 403.175781 259.035156 403.667969 259.949219 C 404.164062 260.863281 406.367188 264.96875 408.566406 269.074219 L 412.5625 276.535156 L 418.652344 276.535156 L 418.882812 270.300781 C 419.003906 266.875 419.097656 260.316406 419.085938 255.730469 L 419.0625 247.390625 L 412.78125 247.390625 L 412.78125 256.414062 C 412.78125 261.828125 412.65625 265.304688 412.464844 265.105469 C 412.289062 264.921875 410.128906 260.980469 407.667969 256.34375 C 405.203125 251.710938 403.015625 247.761719 402.804688 247.566406 C 402.589844 247.371094 401.0625 247.261719 399.347656 247.316406 M 250.191406 258.035156 C 250.191406 270.832031 250.316406 271.53125 253.152344 274.292969 C 255.644531 276.726562 257.542969 277.339844 262.054688 277.183594 C 264.949219 277.082031 265.773438 276.910156 267.511719 276.058594 C 268.832031 275.410156 269.921875 274.550781 270.585938 273.628906 C 272.496094 270.992188 272.664062 269.738281 272.664062 258.035156 L 272.664062 247.390625 L 266.019531 247.390625 L 265.917969 258.269531 L 265.816406 269.144531 L 264.867188 270.097656 C 264.101562 270.859375 263.511719 271.074219 261.84375 271.195312 C 259.4375 271.371094 258.511719 270.984375 257.546875 269.402344 C 256.914062 268.359375 256.863281 267.5625 256.863281 257.839844 L 256.863281 247.390625 L 250.191406 247.390625 L 250.191406 258.035156 M 312.875 261.964844 L 312.875 276.535156 L 319.007812 276.535156 L 319.101562 267.140625 L 319.195312 257.75 L 320.636719 260.382812 C 321.429688 261.832031 323.707031 266.058594 325.699219 269.777344 L 329.320312 276.535156 L 335.699219 276.535156 L 335.699219 247.390625 L 329.554688 247.390625 L 329.542969 256.433594 C 329.535156 264.492188 329.476562 265.398438 329.011719 264.789062 C 328.726562 264.410156 326.5 260.339844 324.066406 255.746094 L 319.636719 247.390625 L 316.257812 247.390625 L 312.875 247.394531 L 312.875 261.964844 M 340.441406 261.964844 L 340.441406 276.535156 L 346.9375 276.535156 L 346.71875 263.894531 L 356.59375 263.894531 L 356.59375 276.535156 L 362.917969 276.535156 L 362.917969 247.390625 L 356.59375 247.390625 L 356.59375 257.925781 L 346.761719 257.925781 L 346.761719 247.390625 L 340.441406 247.390625 L 340.441406 261.964844 M 230.414062 252.726562 C 226.667969 253.742188 224.574219 259.253906 225.765625 264.96875 C 226.644531 269.191406 228.796875 271.265625 232.308594 271.265625 C 233.386719 271.265625 234.363281 271.175781 234.476562 271.058594 C 234.59375 270.945312 234.144531 270.375 233.484375 269.792969 C 232.820312 269.210938 232.28125 268.589844 232.28125 268.40625 C 232.28125 268.226562 233.019531 267.289062 233.921875 266.324219 L 235.558594 264.570312 L 236.898438 265.878906 C 237.636719 266.597656 238.324219 267.097656 238.429688 266.992188 C 238.539062 266.882812 238.792969 265.789062 238.992188 264.554688 C 239.8125 259.5625 238.304688 254.65625 235.511719 253.226562 C 234.136719 252.523438 231.953125 252.308594 230.414062 252.726562 M 378.503906 252.625 C 375.1875 253.460938 373.382812 256.664062 373.328125 261.789062 C 373.28125 266.179688 374.496094 269.011719 377.09375 270.59375 C 378.425781 271.410156 381.472656 271.496094 382.898438 270.761719 C 384.378906 269.992188 386.011719 267.949219 386.480469 266.269531 C 387.023438 264.332031 387.042969 259.554688 386.511719 257.714844 C 385.382812 253.808594 382.09375 251.71875 378.503906 252.625 M 149.492188 276.808594 L 144.839844 276.90625 L 144.839844 307.785156 L 158.535156 307.785156 L 158.535156 276.886719 L 157.390625 276.863281 C 156.765625 276.851562 155.777344 276.8125 155.199219 276.777344 C 154.617188 276.738281 152.050781 276.753906 149.492188 276.808594 M 167.925781 276.796875 L 163.449219 276.90625 L 163.449219 307.785156 L 177.496094 307.785156 L 177.496094 276.96875 L 176.707031 276.757812 C 176.273438 276.640625 175.128906 276.578125 174.160156 276.617188 C 173.195312 276.65625 170.390625 276.738281 167.925781 276.796875 M 273.542969 398.238281 C 266.605469 398.980469 261.390625 399.921875 247.378906 402.941406 C 203.195312 412.476562 176.753906 415.835938 159.101562 414.164062 C 157 413.964844 155.214844 413.863281 155.136719 413.941406 C 154.964844 414.113281 163.070312 416.820312 168.984375 418.558594 C 177.316406 421.015625 191.480469 423.757812 200.675781 424.695312 C 202.703125 424.902344 205.074219 425.152344 205.941406 425.257812 C 206.8125 425.355469 211.394531 425.582031 216.125 425.757812 C 237.914062 426.5625 259.5625 423.871094 280.910156 417.695312 C 291.371094 414.671875 303.140625 410.234375 312.171875 405.910156 L 317.085938 403.550781 L 314.980469 402.554688 C 310.398438 400.386719 304.136719 398.738281 297.773438 398.03125 C 293.320312 397.53125 278.976562 397.65625 273.542969 398.238281 "/>
<g clip-path="url(#clip1)" clip-rule="nonzero">
<path style=" stroke:none;fill-rule:evenodd;fill:rgb(4.313725%,64.705882%,85.882353%);fill-opacity:1;" d="M 218.902344 -0.171875 C 221.265625 -0.113281 225.132812 -0.113281 227.5 -0.171875 C 229.863281 -0.234375 227.929688 -0.285156 223.199219 -0.285156 C 218.46875 -0.285156 216.535156 -0.234375 218.902344 -0.171875 M 231.710938 36.023438 C 232.628906 36.09375 234.128906 36.09375 235.046875 36.023438 C 235.960938 35.949219 235.210938 35.890625 233.378906 35.890625 C 231.542969 35.890625 230.792969 35.949219 231.710938 36.023438 M 458.800781 92.613281 L 458.890625 123.804688 L 490.394531 123.894531 L 521.894531 123.984375 L 521.894531 61.421875 L 458.710938 61.421875 L 458.800781 92.613281 M 376.585938 68.976562 C 378.214844 70.621094 379.628906 71.964844 379.726562 71.964844 C 379.824219 71.964844 378.566406 70.621094 376.933594 68.976562 C 375.300781 67.335938 373.886719 65.988281 373.789062 65.988281 C 373.695312 65.988281 374.953125 67.335938 376.585938 68.976562 M 68.402344 70.824219 L 65.425781 73.898438 L 68.5 70.917969 C 71.351562 68.152344 71.730469 67.746094 71.472656 67.746094 C 71.421875 67.746094 70.039062 69.132812 68.402344 70.824219 M 152.292969 82.964844 L 152.46875 85.847656 L 152.574219 83.246094 C 152.632812 81.8125 152.554688 80.515625 152.402344 80.363281 C 152.25 80.207031 152.199219 81.378906 152.292969 82.964844 M 153.832031 90.066406 C 153.832031 91.996094 153.890625 92.742188 153.960938 91.722656 C 154.03125 90.699219 154.03125 89.121094 153.960938 88.207031 C 153.886719 87.296875 153.828125 88.132812 153.832031 90.066406 M 161.824219 90.679688 C 161.875 93.363281 162.03125 93.070312 162.199219 89.976562 C 162.257812 88.960938 162.183594 88.132812 162.039062 88.132812 C 161.894531 88.132812 161.796875 89.277344 161.824219 90.679688 M 152.078125 99.378906 C 152.078125 101.601562 152.136719 102.511719 152.207031 101.398438 C 152.277344 100.289062 152.277344 98.46875 152.207031 97.355469 C 152.136719 96.246094 152.078125 97.15625 152.078125 99.378906 M 169.628906 102.542969 C 169.628906 104.570312 169.683594 105.402344 169.757812 104.386719 C 169.828125 103.371094 169.828125 101.710938 169.757812 100.695312 C 169.683594 99.679688 169.628906 100.511719 169.628906 102.542969 M 162.273438 107.8125 C 162.273438 111.582031 162.324219 113.125 162.386719 111.238281 C 162.449219 109.355469 162.449219 106.269531 162.386719 104.386719 C 162.324219 102.5 162.273438 104.042969 162.273438 107.8125 M 177.71875 109.570312 C 177.71875 113.726562 177.769531 115.425781 177.832031 113.347656 C 177.894531 111.269531 177.894531 107.871094 177.832031 105.792969 C 177.769531 103.714844 177.71875 105.414062 177.71875 109.570312 M 145.078125 119.761719 C 145.078125 124.5 145.128906 126.4375 145.1875 124.066406 C 145.25 121.699219 145.25 117.824219 145.1875 115.457031 C 145.128906 113.089844 145.078125 115.027344 145.078125 119.761719 M 151.753906 127.671875 C 151.753906 134.824219 151.800781 137.699219 151.859375 134.0625 C 151.917969 130.425781 151.917969 124.574219 151.859375 121.058594 C 151.800781 117.542969 151.753906 120.519531 151.753906 127.671875 M 167.1875 136.28125 C 167.1875 140.050781 167.238281 141.59375 167.300781 139.707031 C 167.363281 137.824219 167.363281 134.738281 167.300781 132.855469 C 167.238281 130.96875 167.1875 132.511719 167.1875 136.28125 M 178.0625 144.011719 C 178.0625 147.203125 178.117188 148.507812 178.183594 146.914062 C 178.246094 145.316406 178.246094 142.707031 178.183594 141.113281 C 178.117188 139.519531 178.0625 140.824219 178.0625 144.011719 M 175.59375 144.539062 C 175.59375 146.472656 175.652344 147.21875 175.722656 146.199219 C 175.792969 145.175781 175.792969 143.59375 175.722656 142.683594 C 175.648438 141.773438 175.589844 142.609375 175.59375 144.539062 M 162.269531 148.054688 C 162.269531 151.339844 162.320312 152.734375 162.386719 151.148438 C 162.453125 149.5625 162.453125 146.875 162.386719 145.171875 C 162.324219 143.472656 162.269531 144.769531 162.269531 148.054688 M 169.621094 152.800781 C 169.621094 154.441406 169.679688 155.113281 169.753906 154.292969 C 169.828125 153.472656 169.828125 152.128906 169.753906 151.304688 C 169.679688 150.484375 169.621094 151.15625 169.621094 152.800781 M 151.75 161.9375 C 151.75 166.671875 151.796875 168.609375 151.859375 166.242188 C 151.917969 163.875 151.917969 160 151.859375 157.632812 C 151.796875 155.265625 151.75 157.203125 151.75 161.9375 M 141.542969 160.179688 C 141.542969 162.015625 141.605469 162.769531 141.675781 161.851562 C 141.746094 160.929688 141.746094 159.429688 141.675781 158.511719 C 141.605469 157.59375 141.542969 158.34375 141.542969 160.179688 M 144.699219 161.058594 C 144.699219 162.796875 144.757812 163.554688 144.832031 162.738281 C 144.90625 161.921875 144.90625 160.5 144.835938 159.574219 C 144.761719 158.652344 144.703125 159.320312 144.699219 161.058594 M 120.476562 164.574219 C 120.480469 166.121094 120.539062 166.707031 120.613281 165.882812 C 120.6875 165.054688 120.6875 163.789062 120.613281 163.070312 C 120.535156 162.351562 120.476562 163.027344 120.476562 164.574219 M 161.902344 165.453125 C 161.902344 167.289062 161.960938 168.039062 162.03125 167.121094 C 162.105469 166.203125 162.105469 164.699219 162.03125 163.78125 C 161.960938 162.863281 161.902344 163.617188 161.902344 165.453125 M 177.691406 166.507812 C 177.691406 168.148438 177.753906 168.820312 177.828125 168 C 177.898438 167.179688 177.898438 165.835938 177.828125 165.011719 C 177.753906 164.191406 177.691406 164.863281 177.691406 166.507812 M 141.902344 177.929688 C 141.902344 180.25 141.960938 181.152344 142.027344 179.9375 C 142.097656 178.71875 142.097656 176.824219 142.027344 175.71875 C 141.957031 174.613281 141.902344 175.609375 141.902344 177.929688 M 132.914062 178.011719 C 133.742188 178.085938 135.003906 178.085938 135.722656 178.007812 C 136.441406 177.933594 135.765625 177.871094 134.222656 177.875 C 132.675781 177.875 132.089844 177.9375 132.914062 178.011719 M 152.066406 189.175781 C 152.066406 190.722656 152.128906 191.3125 152.203125 190.484375 C 152.277344 189.65625 152.277344 188.390625 152.203125 187.671875 C 152.125 186.953125 152.066406 187.628906 152.066406 189.175781 M 142.242188 193.042969 C 142.242188 194.78125 142.300781 195.539062 142.375 194.722656 C 142.449219 193.90625 142.449219 192.480469 142.378906 191.558594 C 142.304688 190.632812 142.246094 191.300781 142.242188 193.042969 M 235.046875 194.886719 C 250.34375 194.9375 275.378906 194.9375 290.679688 194.886719 C 305.976562 194.835938 293.460938 194.792969 262.859375 194.792969 C 232.261719 194.792969 219.746094 194.835938 235.046875 194.886719 M 229.566406 204.277344 C 229.890625 204.605469 246.128906 205.484375 272.515625 206.609375 C 285.851562 207.175781 342.714844 207.40625 357.457031 206.953125 C 378.597656 206.300781 408.699219 204.730469 409.199219 204.253906 C 409.277344 204.175781 368.855469 204.113281 319.371094 204.113281 C 269.886719 204.113281 229.472656 204.1875 229.566406 204.277344 M 266.898438 212.566406 C 269.109375 212.929688 285.125 214.140625 297.082031 214.847656 C 309.707031 215.597656 340.007812 215.597656 351.664062 214.851562 C 362.460938 214.160156 377.433594 212.933594 379.644531 212.5625 C 380.566406 212.40625 355.183594 212.277344 323.230469 212.277344 C 291.285156 212.277344 265.933594 212.40625 266.898438 212.566406 M 389.140625 242.679688 C 389.964844 242.753906 391.230469 242.753906 391.949219 242.675781 C 392.667969 242.601562 391.992188 242.539062 390.449219 242.542969 C 388.90625 242.542969 388.3125 242.605469 389.140625 242.679688 M 113.6875 245.9375 C 113.6875 246.359375 116.039062 246.359375 117.023438 245.9375 C 117.527344 245.71875 117.160156 245.625 115.707031 245.609375 C 114.578125 245.59375 113.6875 245.738281 113.6875 245.9375 M 120.980469 246.546875 C 121.804688 246.617188 123.070312 246.617188 123.789062 246.542969 C 124.507812 246.46875 123.832031 246.40625 122.289062 246.40625 C 120.742188 246.410156 120.15625 246.472656 120.980469 246.546875 M 251.90625 247.25 C 252.925781 247.320312 254.503906 247.320312 255.414062 247.246094 C 256.324219 247.175781 255.492188 247.117188 253.558594 247.117188 C 251.628906 247.117188 250.886719 247.179688 251.90625 247.25 M 269.347656 247.246094 L 272.679688 247.367188 L 272.78125 256.929688 L 272.882812 266.496094 L 272.875 256.832031 L 272.863281 247.167969 L 269.441406 247.144531 L 266.019531 247.125 L 269.347656 247.246094 M 277.003906 247.25 C 278.121094 247.320312 279.855469 247.320312 280.863281 247.25 C 281.871094 247.179688 280.957031 247.121094 278.832031 247.121094 C 276.707031 247.121094 275.882812 247.179688 277.003906 247.25 M 294.726562 247.25 C 295.746094 247.320312 297.324219 247.320312 298.238281 247.246094 C 299.148438 247.175781 298.3125 247.117188 296.378906 247.117188 C 294.449219 247.117188 293.707031 247.179688 294.726562 247.25 M 314.371094 247.25 C 315.382812 247.320312 317.042969 247.320312 318.054688 247.25 C 319.070312 247.179688 318.238281 247.121094 316.210938 247.121094 C 314.183594 247.121094 313.355469 247.179688 314.371094 247.25 M 331.054688 247.25 C 331.976562 247.320312 333.398438 247.320312 334.210938 247.246094 C 335.027344 247.171875 334.273438 247.113281 332.535156 247.113281 C 330.796875 247.117188 330.128906 247.175781 331.054688 247.25 M 343.667969 247.246094 L 346.730469 247.367188 L 346.84375 252.625 L 346.953125 257.886719 L 346.9375 252.527344 L 346.925781 247.167969 L 343.765625 247.144531 L 340.605469 247.125 L 343.667969 247.246094 M 359.820312 247.246094 L 362.886719 247.367188 L 362.988281 262.027344 L 363.082031 276.6875 L 363.078125 261.925781 L 363.070312 247.167969 L 359.910156 247.144531 L 356.753906 247.125 L 359.820312 247.246094 M 396.050781 247.429688 C 395.953125 247.671875 395.921875 254.355469 395.976562 262.28125 L 396.070312 276.6875 L 396.15625 262.027344 L 396.238281 247.367188 L 399.308594 247.253906 L 402.382812 247.132812 L 399.300781 247.0625 C 397.097656 247.011719 396.167969 247.117188 396.050781 247.429688 M 414.238281 247.25 C 415.160156 247.320312 416.582031 247.320312 417.398438 247.246094 C 418.210938 247.171875 417.457031 247.113281 415.71875 247.113281 C 413.984375 247.117188 413.316406 247.175781 414.238281 247.25 M 312.863281 260.871094 C 312.859375 268.21875 312.910156 271.273438 312.964844 267.660156 C 313.023438 264.050781 313.023438 258.039062 312.964844 254.308594 C 312.910156 250.574219 312.863281 253.527344 312.863281 260.871094 M 335.675781 264.035156 C 335.675781 270.609375 335.722656 273.246094 335.78125 269.898438 C 335.835938 266.554688 335.835938 261.175781 335.777344 257.949219 C 335.722656 254.726562 335.675781 257.464844 335.675781 264.035156 M 346.894531 269.835938 C 346.894531 273.21875 346.945312 274.601562 347.011719 272.910156 C 347.074219 271.21875 347.074219 268.449219 347.011719 266.761719 C 346.945312 265.066406 346.894531 266.453125 346.894531 269.835938 M 291.082031 271.066406 C 291.082031 274.160156 291.136719 275.375 291.203125 273.773438 C 291.265625 272.167969 291.265625 269.636719 291.203125 268.148438 C 291.136719 266.660156 291.082031 267.972656 291.082031 271.066406 M 106.230469 266.226562 C 107.050781 266.300781 108.394531 266.300781 109.214844 266.226562 C 110.035156 266.152344 109.363281 266.09375 107.722656 266.09375 C 106.082031 266.09375 105.410156 266.152344 106.230469 266.226562 M 118.703125 266.226562 C 119.625 266.300781 121.046875 266.300781 121.859375 266.226562 C 122.675781 266.152344 121.921875 266.09375 120.183594 266.09375 C 118.445312 266.09375 117.777344 266.15625 118.703125 266.226562 M 418.832031 272.996094 C 418.832031 275.027344 418.890625 275.859375 418.960938 274.84375 C 419.03125 273.828125 419.03125 272.167969 418.960938 271.152344 C 418.890625 270.136719 418.832031 270.96875 418.832031 272.996094 M 102.394531 273.261719 C 107.089844 273.316406 114.667969 273.316406 119.242188 273.261719 C 123.8125 273.207031 119.972656 273.160156 110.707031 273.160156 C 101.4375 273.160156 97.699219 273.207031 102.394531 273.261719 M 147.121094 276.773438 C 148.421875 276.839844 150.554688 276.839844 151.859375 276.773438 C 153.164062 276.707031 152.097656 276.648438 149.492188 276.648438 C 146.882812 276.648438 145.820312 276.707031 147.121094 276.773438 M 165.738281 276.773438 C 167.050781 276.839844 169.101562 276.839844 170.300781 276.773438 C 171.5 276.703125 170.425781 276.648438 167.917969 276.648438 C 165.410156 276.648438 164.425781 276.707031 165.738281 276.773438 M 324.402344 329.847656 C 336.722656 329.898438 356.78125 329.898438 368.976562 329.847656 C 381.171875 329.792969 371.089844 329.753906 346.574219 329.753906 C 322.058594 329.753906 312.078125 329.792969 324.402344 329.847656 M 366.929688 366.835938 C 364.621094 369.15625 362.8125 371.054688 362.90625 371.054688 C 363.003906 371.054688 364.972656 369.15625 367.28125 366.835938 C 369.589844 364.515625 371.402344 362.621094 371.308594 362.621094 C 371.210938 362.621094 369.242188 364.515625 366.929688 366.835938 M 376.050781 378.523438 L 372.546875 382.125 L 376.144531 378.617188 C 378.125 376.6875 379.742188 375.070312 379.742188 375.015625 C 379.742188 374.761719 379.304688 375.175781 376.050781 378.523438 M 198.367188 384.316406 C 199.285156 384.386719 200.785156 384.386719 201.699219 384.316406 C 202.617188 384.246094 201.867188 384.183594 200.035156 384.183594 C 198.199219 384.183594 197.449219 384.246094 198.367188 384.316406 M 290.511719 385.71875 C 291.335938 385.792969 292.601562 385.792969 293.320312 385.71875 C 294.039062 385.644531 293.363281 385.582031 291.820312 385.582031 C 290.273438 385.585938 289.6875 385.648438 290.511719 385.71875 M 298.574219 385.71875 C 299.394531 385.792969 300.738281 385.792969 301.558594 385.71875 C 302.378906 385.648438 301.707031 385.585938 300.066406 385.585938 C 298.425781 385.585938 297.753906 385.648438 298.574219 385.71875 M 285.773438 397.675781 C 286.695312 397.746094 288.117188 397.746094 288.933594 397.667969 C 289.75 397.597656 288.992188 397.535156 287.257812 397.535156 C 285.519531 397.539062 284.851562 397.601562 285.773438 397.675781 "/>
</g>
</g>
</svg>
